<!--
 Copyright (C) 2021 Pablo Fernández Bravo
 
 This file is part of github-text-mining-tfg.
 
 github-text-mining-tfg is free software: you can redistribute it and/or modify
 it under the terms of the GNU General Public License as published by
 the Free Software Foundation, either version 3 of the License, or
 (at your option) any later version.
 
 github-text-mining-tfg is distributed in the hope that it will be useful,
 but WITHOUT ANY WARRANTY; without even the implied warranty of
 MERCHANTABILITY or FITNESS FOR A PARTICULAR PURPOSE.  See the
 GNU General Public License for more details.
 
 You should have received a copy of the GNU General Public License
 along with github-text-mining-tfg.  If not, see <http://www.gnu.org/licenses/>.
-->

<svg xmlns="http://www.w3.org/2000/svg" version="1.1" xmlns:xlink="http://www.w3.org/1999/xlink" xmlns:svgjs="http://svgjs.com/svgjs" width="3840" height="2160" preserveAspectRatio="none" viewBox="0 0 3840 2160">
    <g mask="url(&quot;#SvgjsMask1335&quot;)" fill="none">
        <path d="M92.49 -4.52L179.09 45.48L179.09 145.48L92.49 195.48L5.88 145.48L5.88 45.48zM92.49 295.48L179.09 345.48L179.09 445.48L92.49 495.48L5.88 445.48L5.88 345.48zM179.09 1045.48L265.7 1095.48L265.7 1195.48L179.09 1245.48L92.49 1195.48L92.49 1095.48zM179.09 1345.48L265.7 1395.48L265.7 1495.48L179.09 1545.48L92.49 1495.48L92.49 1395.48zM92.49 1795.48L179.09 1845.48L179.09 1945.48L92.49 1995.48L5.88 1945.48L5.88 1845.48zM92.49 2095.48L179.09 2145.48L179.09 2245.48L92.49 2295.48L5.88 2245.48L5.88 2145.48zM265.7 -4.52L352.31 45.48L352.31 145.48L265.7 195.48L179.09 145.48L179.09 45.48zM352.31 445.48L438.91 495.48L438.91 595.48L352.31 645.48L265.7 595.48L265.7 495.48zM352.31 745.48L438.91 795.48L438.91 895.48L352.31 945.48L265.7 895.48L265.7 795.48zM352.31 1345.48L438.91 1395.48L438.91 1495.48L352.31 1545.48L265.7 1495.48L265.7 1395.48zM265.7 1495.48L352.31 1545.48L352.31 1645.48L265.7 1695.48L179.09 1645.48L179.09 1545.48zM352.31 1645.48L438.91 1695.48L438.91 1795.48L352.31 1845.48L265.7 1795.48L265.7 1695.48zM265.7 2095.48L352.31 2145.48L352.31 2245.48L265.7 2295.48L179.09 2245.48L179.09 2145.48zM525.51 445.48L612.12 495.48L612.12 595.48L525.51 645.48L438.91 595.48L438.91 495.48zM525.51 745.48L612.12 795.48L612.12 895.48L525.51 945.48L438.91 895.48L438.91 795.48zM525.51 1045.48L612.12 1095.48L612.12 1195.48L525.51 1245.48L438.91 1195.48L438.91 1095.48zM525.51 1345.48L612.12 1395.48L612.12 1495.48L525.51 1545.48L438.91 1495.48L438.91 1395.48zM525.51 1645.48L612.12 1695.48L612.12 1795.48L525.51 1845.48L438.91 1795.48L438.91 1695.48zM438.91 1795.48L525.51 1845.48L525.51 1945.48L438.91 1995.48L352.31 1945.48L352.31 1845.48zM612.12 -4.52L698.73 45.48L698.73 145.48L612.12 195.48L525.51 145.48L525.51 45.48zM612.12 295.48L698.73 345.48L698.73 445.48L612.12 495.48L525.51 445.48L525.51 345.48zM612.12 895.48L698.73 945.48L698.73 1045.48L612.12 1095.48L525.51 1045.48L525.51 945.48zM698.73 1045.48L785.33 1095.48L785.33 1195.48L698.73 1245.48L612.12 1195.48L612.12 1095.48zM612.12 1195.48L698.73 1245.48L698.73 1345.48L612.12 1395.48L525.51 1345.48L525.51 1245.48zM698.73 1345.48L785.33 1395.48L785.33 1495.48L698.73 1545.48L612.12 1495.48L612.12 1395.48zM612.12 1495.48L698.73 1545.48L698.73 1645.48L612.12 1695.48L525.51 1645.48L525.51 1545.48zM698.73 1645.48L785.33 1695.48L785.33 1795.48L698.73 1845.48L612.12 1795.48L612.12 1695.48zM612.12 1795.48L698.73 1845.48L698.73 1945.48L612.12 1995.48L525.51 1945.48L525.51 1845.48zM698.73 1945.48L785.33 1995.48L785.33 2095.48L698.73 2145.48L612.12 2095.48L612.12 1995.48zM785.33 -4.52L871.94 45.48L871.94 145.48L785.33 195.48L698.73 145.48L698.73 45.48zM871.94 145.48L958.54 195.48L958.54 295.48L871.94 345.48L785.33 295.48L785.33 195.48zM871.94 445.48L958.54 495.48L958.54 595.48L871.94 645.48L785.33 595.48L785.33 495.48zM785.33 595.48L871.94 645.48L871.94 745.48L785.33 795.48L698.73 745.48L698.73 645.48zM785.33 1195.48L871.94 1245.48L871.94 1345.48L785.33 1395.48L698.73 1345.48L698.73 1245.48zM871.94 1345.48L958.54 1395.48L958.54 1495.48L871.94 1545.48L785.33 1495.48L785.33 1395.48zM871.94 1645.48L958.54 1695.48L958.54 1795.48L871.94 1845.48L785.33 1795.48L785.33 1695.48zM785.33 1795.48L871.94 1845.48L871.94 1945.48L785.33 1995.48L698.73 1945.48L698.73 1845.48zM958.54 -4.52L1045.14 45.48L1045.14 145.48L958.54 195.48L871.94 145.48L871.94 45.48zM958.54 295.48L1045.14 345.48L1045.14 445.48L958.54 495.48L871.94 445.48L871.94 345.48zM1045.14 745.48L1131.75 795.48L1131.75 895.48L1045.14 945.48L958.54 895.48L958.54 795.48zM958.54 1195.48L1045.14 1245.48L1045.14 1345.48L958.54 1395.48L871.94 1345.48L871.94 1245.48zM958.54 1495.48L1045.14 1545.48L1045.14 1645.48L958.54 1695.48L871.94 1645.48L871.94 1545.48zM1045.14 1945.48L1131.75 1995.48L1131.75 2095.48L1045.14 2145.48L958.54 2095.48L958.54 1995.48zM958.54 2095.48L1045.14 2145.48L1045.14 2245.48L958.54 2295.48L871.94 2245.48L871.94 2145.48zM1131.75 -4.52L1218.36 45.48L1218.36 145.48L1131.75 195.48L1045.14 145.48L1045.14 45.48zM1218.36 145.48L1304.96 195.48L1304.96 295.48L1218.36 345.48L1131.75 295.48L1131.75 195.48zM1218.36 445.48L1304.96 495.48L1304.96 595.48L1218.36 645.48L1131.75 595.48L1131.75 495.48zM1218.36 1345.48L1304.96 1395.48L1304.96 1495.48L1218.36 1545.48L1131.75 1495.48L1131.75 1395.48zM1131.75 1795.48L1218.36 1845.48L1218.36 1945.48L1131.75 1995.48L1045.14 1945.48L1045.14 1845.48zM1131.75 2095.48L1218.36 2145.48L1218.36 2245.48L1131.75 2295.48L1045.14 2245.48L1045.14 2145.48zM1304.96 595.48L1391.57 645.48L1391.57 745.48L1304.96 795.48L1218.36 745.48L1218.36 645.48zM1391.57 745.48L1478.17 795.48L1478.17 895.48L1391.57 945.48L1304.96 895.48L1304.96 795.48zM1391.57 1045.48L1478.17 1095.48L1478.17 1195.48L1391.57 1245.48L1304.96 1195.48L1304.96 1095.48zM1304.96 1195.48L1391.57 1245.48L1391.57 1345.48L1304.96 1395.48L1218.36 1345.48L1218.36 1245.48zM1391.57 1645.48L1478.17 1695.48L1478.17 1795.48L1391.57 1845.48L1304.96 1795.48L1304.96 1695.48zM1478.17 -4.52L1564.78 45.48L1564.78 145.48L1478.17 195.48L1391.57 145.48L1391.57 45.48zM1478.17 295.48L1564.78 345.48L1564.78 445.48L1478.17 495.48L1391.57 445.48L1391.57 345.48zM1564.78 445.48L1651.38 495.48L1651.38 595.48L1564.78 645.48L1478.17 595.48L1478.17 495.48zM1478.17 595.48L1564.78 645.48L1564.78 745.48L1478.17 795.48L1391.57 745.48L1391.57 645.48zM1564.78 1045.48L1651.38 1095.48L1651.38 1195.48L1564.78 1245.48L1478.17 1195.48L1478.17 1095.48zM1478.17 1195.48L1564.78 1245.48L1564.78 1345.48L1478.17 1395.48L1391.57 1345.48L1391.57 1245.48zM1478.17 1495.48L1564.78 1545.48L1564.78 1645.48L1478.17 1695.48L1391.57 1645.48L1391.57 1545.48zM1478.17 1795.48L1564.78 1845.48L1564.78 1945.48L1478.17 1995.48L1391.57 1945.48L1391.57 1845.48zM1564.78 1945.48L1651.38 1995.48L1651.38 2095.48L1564.78 2145.48L1478.17 2095.48L1478.17 1995.48zM1651.38 -4.52L1737.99 45.48L1737.99 145.48L1651.38 195.48L1564.78 145.48L1564.78 45.48zM1651.38 595.48L1737.99 645.48L1737.99 745.48L1651.38 795.48L1564.78 745.48L1564.78 645.48zM1651.38 895.48L1737.99 945.48L1737.99 1045.48L1651.38 1095.48L1564.78 1045.48L1564.78 945.48zM1737.99 1045.48L1824.59 1095.48L1824.59 1195.48L1737.99 1245.48L1651.38 1195.48L1651.38 1095.48zM1651.38 1195.48L1737.99 1245.48L1737.99 1345.48L1651.38 1395.48L1564.78 1345.48L1564.78 1245.48zM1737.99 1345.48L1824.59 1395.48L1824.59 1495.48L1737.99 1545.48L1651.38 1495.48L1651.38 1395.48zM1651.38 1495.48L1737.99 1545.48L1737.99 1645.48L1651.38 1695.48L1564.78 1645.48L1564.78 1545.48zM1737.99 1645.48L1824.59 1695.48L1824.59 1795.48L1737.99 1845.48L1651.38 1795.48L1651.38 1695.48zM1651.38 2095.48L1737.99 2145.48L1737.99 2245.48L1651.38 2295.48L1564.78 2245.48L1564.78 2145.48zM1824.59 -4.52L1911.2 45.48L1911.2 145.48L1824.59 195.48L1737.99 145.48L1737.99 45.48zM1911.2 145.48L1997.8 195.48L1997.8 295.48L1911.2 345.48L1824.59 295.48L1824.59 195.48zM1824.59 595.48L1911.2 645.48L1911.2 745.48L1824.59 795.48L1737.99 745.48L1737.99 645.48zM1911.2 745.48L1997.8 795.48L1997.8 895.48L1911.2 945.48L1824.59 895.48L1824.59 795.48zM1824.59 895.48L1911.2 945.48L1911.2 1045.48L1824.59 1095.48L1737.99 1045.48L1737.99 945.48zM1911.2 1345.48L1997.8 1395.48L1997.8 1495.48L1911.2 1545.48L1824.59 1495.48L1824.59 1395.48zM1911.2 1645.48L1997.8 1695.48L1997.8 1795.48L1911.2 1845.48L1824.59 1795.48L1824.59 1695.48zM1824.59 1795.48L1911.2 1845.48L1911.2 1945.48L1824.59 1995.48L1737.99 1945.48L1737.99 1845.48zM1824.59 2095.48L1911.2 2145.48L1911.2 2245.48L1824.59 2295.48L1737.99 2245.48L1737.99 2145.48zM1997.8 -4.52L2084.41 45.48L2084.41 145.48L1997.8 195.48L1911.2 145.48L1911.2 45.48zM2084.41 145.48L2171.01 195.48L2171.01 295.48L2084.41 345.48L1997.8 295.48L1997.8 195.48zM1997.8 295.48L2084.41 345.48L2084.41 445.48L1997.8 495.48L1911.2 445.48L1911.2 345.48zM2084.41 745.48L2171.01 795.48L2171.01 895.48L2084.41 945.48L1997.8 895.48L1997.8 795.48zM1997.8 895.48L2084.41 945.48L2084.41 1045.48L1997.8 1095.48L1911.2 1045.48L1911.2 945.48zM2084.41 1045.48L2171.01 1095.48L2171.01 1195.48L2084.41 1245.48L1997.8 1195.48L1997.8 1095.48zM1997.8 2095.48L2084.41 2145.48L2084.41 2245.48L1997.8 2295.48L1911.2 2245.48L1911.2 2145.48zM2171.01 -4.52L2257.61 45.48L2257.61 145.48L2171.01 195.48L2084.4 145.48L2084.4 45.48zM2171.01 595.48L2257.61 645.48L2257.61 745.48L2171.01 795.48L2084.4 745.48L2084.4 645.48zM2257.61 745.48L2344.22 795.48L2344.22 895.48L2257.61 945.48L2171.01 895.48L2171.01 795.48zM2257.61 1045.48L2344.22 1095.48L2344.22 1195.48L2257.61 1245.48L2171.01 1195.48L2171.01 1095.48zM2171.01 1195.48L2257.61 1245.48L2257.61 1345.48L2171.01 1395.48L2084.4 1345.48L2084.4 1245.48zM2257.61 1345.48L2344.22 1395.48L2344.22 1495.48L2257.61 1545.48L2171.01 1495.48L2171.01 1395.48zM2171.01 1495.48L2257.61 1545.48L2257.61 1645.48L2171.01 1695.48L2084.4 1645.48L2084.4 1545.48zM2257.61 1645.48L2344.22 1695.48L2344.22 1795.48L2257.61 1845.48L2171.01 1795.48L2171.01 1695.48zM2344.22 -4.52L2430.82 45.48L2430.82 145.48L2344.22 195.48L2257.61 145.48L2257.61 45.48zM2344.22 295.48L2430.82 345.48L2430.82 445.48L2344.22 495.48L2257.61 445.48L2257.61 345.48zM2344.22 595.48L2430.82 645.48L2430.82 745.48L2344.22 795.48L2257.61 745.48L2257.61 645.48zM2430.82 1045.48L2517.43 1095.48L2517.43 1195.48L2430.82 1245.48L2344.22 1195.48L2344.22 1095.48zM2344.22 1495.48L2430.82 1545.48L2430.82 1645.48L2344.22 1695.48L2257.61 1645.48L2257.61 1545.48zM2430.82 1645.48L2517.43 1695.48L2517.43 1795.48L2430.82 1845.48L2344.22 1795.48L2344.22 1695.48zM2430.82 1945.48L2517.43 1995.48L2517.43 2095.48L2430.82 2145.48L2344.22 2095.48L2344.22 1995.48zM2517.43 295.48L2604.03 345.48L2604.03 445.48L2517.43 495.48L2430.82 445.48L2430.82 345.48zM2604.03 745.48L2690.64 795.48L2690.64 895.48L2604.03 945.48L2517.43 895.48L2517.43 795.48zM2517.43 1195.48L2604.03 1245.48L2604.03 1345.48L2517.43 1395.48L2430.82 1345.48L2430.82 1245.48zM2517.43 1495.48L2604.03 1545.48L2604.03 1645.48L2517.43 1695.48L2430.82 1645.48L2430.82 1545.48zM2604.03 1645.48L2690.64 1695.48L2690.64 1795.48L2604.03 1845.48L2517.43 1795.48L2517.43 1695.48zM2517.43 1795.48L2604.03 1845.48L2604.03 1945.48L2517.43 1995.48L2430.82 1945.48L2430.82 1845.48zM2690.64 295.48L2777.24 345.48L2777.24 445.48L2690.64 495.48L2604.03 445.48L2604.03 345.48zM2777.24 445.48L2863.85 495.48L2863.85 595.48L2777.24 645.48L2690.64 595.48L2690.64 495.48zM2777.24 745.48L2863.85 795.48L2863.85 895.48L2777.24 945.48L2690.64 895.48L2690.64 795.48zM2690.64 895.48L2777.24 945.48L2777.24 1045.48L2690.64 1095.48L2604.03 1045.48L2604.03 945.48zM2777.24 1045.48L2863.85 1095.48L2863.85 1195.48L2777.24 1245.48L2690.64 1195.48L2690.64 1095.48zM2777.24 1345.48L2863.85 1395.48L2863.85 1495.48L2777.24 1545.48L2690.64 1495.48L2690.64 1395.48zM2690.64 1495.48L2777.24 1545.48L2777.24 1645.48L2690.64 1695.48L2604.03 1645.48L2604.03 1545.48zM2777.24 1645.48L2863.85 1695.48L2863.85 1795.48L2777.24 1845.48L2690.64 1795.48L2690.64 1695.48zM2777.24 1945.48L2863.85 1995.48L2863.85 2095.48L2777.24 2145.48L2690.64 2095.48L2690.64 1995.48zM2863.85 -4.52L2950.45 45.48L2950.45 145.48L2863.85 195.48L2777.24 145.48L2777.24 45.48zM2863.85 295.48L2950.45 345.48L2950.45 445.48L2863.85 495.48L2777.24 445.48L2777.24 345.48zM2950.45 445.48L3037.06 495.48L3037.06 595.48L2950.45 645.48L2863.85 595.48L2863.85 495.48zM2863.85 595.48L2950.45 645.48L2950.45 745.48L2863.85 795.48L2777.24 745.48L2777.24 645.48zM2863.85 895.48L2950.45 945.48L2950.45 1045.48L2863.85 1095.48L2777.24 1045.48L2777.24 945.48zM2950.45 1045.48L3037.06 1095.48L3037.06 1195.48L2950.45 1245.48L2863.85 1195.48L2863.85 1095.48zM2950.45 1345.48L3037.06 1395.48L3037.06 1495.48L2950.45 1545.48L2863.85 1495.48L2863.85 1395.48zM2950.45 1645.48L3037.06 1695.48L3037.06 1795.48L2950.45 1845.48L2863.85 1795.48L2863.85 1695.48zM2950.45 1945.48L3037.06 1995.48L3037.06 2095.48L2950.45 2145.48L2863.85 2095.48L2863.85 1995.48zM3037.06 -4.52L3123.66 45.48L3123.66 145.48L3037.06 195.48L2950.45 145.48L2950.45 45.48zM3037.06 295.48L3123.66 345.48L3123.66 445.48L3037.06 495.48L2950.45 445.48L2950.45 345.48zM3123.66 745.48L3210.27 795.48L3210.27 895.48L3123.66 945.48L3037.06 895.48L3037.06 795.48zM3123.66 1045.48L3210.27 1095.48L3210.27 1195.48L3123.66 1245.48L3037.06 1195.48L3037.06 1095.48zM3037.06 1195.48L3123.66 1245.48L3123.66 1345.48L3037.06 1395.48L2950.45 1345.48L2950.45 1245.48zM3123.66 1645.48L3210.27 1695.48L3210.27 1795.48L3123.66 1845.48L3037.06 1795.48L3037.06 1695.48zM3123.66 1945.48L3210.27 1995.48L3210.27 2095.48L3123.66 2145.48L3037.06 2095.48L3037.06 1995.48zM3296.88 145.48L3383.48 195.48L3383.48 295.48L3296.88 345.48L3210.27 295.48L3210.27 195.48zM3210.27 595.48L3296.88 645.48L3296.88 745.48L3210.27 795.48L3123.66 745.48L3123.66 645.48zM3210.27 895.48L3296.88 945.48L3296.88 1045.48L3210.27 1095.48L3123.66 1045.48L3123.66 945.48zM3296.88 1045.48L3383.48 1095.48L3383.48 1195.48L3296.88 1245.48L3210.27 1195.48L3210.27 1095.48zM3210.27 1195.48L3296.88 1245.48L3296.88 1345.48L3210.27 1395.48L3123.66 1345.48L3123.66 1245.48zM3210.27 1495.48L3296.88 1545.48L3296.88 1645.48L3210.27 1695.48L3123.66 1645.48L3123.66 1545.48zM3296.88 1645.48L3383.48 1695.48L3383.48 1795.48L3296.88 1845.48L3210.27 1795.48L3210.27 1695.48zM3210.27 1795.48L3296.88 1845.48L3296.88 1945.48L3210.27 1995.48L3123.66 1945.48L3123.66 1845.48zM3296.88 1945.48L3383.48 1995.48L3383.48 2095.48L3296.88 2145.48L3210.27 2095.48L3210.27 1995.48zM3383.48 895.48L3470.09 945.48L3470.09 1045.48L3383.48 1095.48L3296.88 1045.48L3296.88 945.48zM3470.09 1945.48L3556.69 1995.48L3556.69 2095.48L3470.09 2145.48L3383.48 2095.48L3383.48 1995.48zM3383.48 2095.48L3470.09 2145.48L3470.09 2245.48L3383.48 2295.48L3296.88 2245.48L3296.88 2145.48zM3643.3 145.48L3729.9 195.48L3729.9 295.48L3643.3 345.48L3556.69 295.48L3556.69 195.48zM3556.69 295.48L3643.3 345.48L3643.3 445.48L3556.69 495.48L3470.09 445.48L3470.09 345.48zM3556.69 595.48L3643.3 645.48L3643.3 745.48L3556.69 795.48L3470.09 745.48L3470.09 645.48zM3643.3 745.48L3729.9 795.48L3729.9 895.48L3643.3 945.48L3556.69 895.48L3556.69 795.48zM3556.69 1495.48L3643.3 1545.48L3643.3 1645.48L3556.69 1695.48L3470.09 1645.48L3470.09 1545.48zM3643.3 1645.48L3729.9 1695.48L3729.9 1795.48L3643.3 1845.48L3556.69 1795.48L3556.69 1695.48zM3556.69 1795.48L3643.3 1845.48L3643.3 1945.48L3556.69 1995.48L3470.09 1945.48L3470.09 1845.48zM3643.3 1945.48L3729.9 1995.48L3729.9 2095.48L3643.3 2145.48L3556.69 2095.48L3556.69 1995.48zM3556.69 2095.48L3643.3 2145.48L3643.3 2245.48L3556.69 2295.48L3470.09 2245.48L3470.09 2145.48zM3729.9 -4.52L3816.51 45.48L3816.51 145.48L3729.9 195.48L3643.3 145.48L3643.3 45.48zM3816.51 145.48L3903.11 195.48L3903.11 295.48L3816.51 345.48L3729.9 295.48L3729.9 195.48zM3816.51 1345.48L3903.11 1395.48L3903.11 1495.48L3816.51 1545.48L3729.9 1495.48L3729.9 1395.48zM3729.9 1495.48L3816.51 1545.48L3816.51 1645.48L3729.9 1695.48L3643.3 1645.48L3643.3 1545.48zM3816.51 1645.48L3903.11 1695.48L3903.11 1795.48L3816.51 1845.48L3729.9 1795.48L3729.9 1695.48zM3816.51 1945.48L3903.11 1995.48L3903.11 2095.48L3816.51 2145.48L3729.9 2095.48L3729.9 1995.48zM3989.72 145.48L4076.32 195.48L4076.32 295.48L3989.72 345.48L3903.11 295.48L3903.11 195.48zM3903.11 595.48L3989.72 645.48L3989.72 745.48L3903.11 795.48L3816.51 745.48L3816.51 645.48zM3903.11 895.48L3989.72 945.48L3989.72 1045.48L3903.11 1095.48L3816.51 1045.48L3816.51 945.48zM3989.72 1045.48L4076.32 1095.48L4076.32 1195.48L3989.72 1245.48L3903.11 1195.48L3903.11 1095.48zM3903.11 1495.48L3989.72 1545.48L3989.72 1645.48L3903.11 1695.48L3816.51 1645.48L3816.51 1545.48z" stroke="rgba(170, 34, 60, 0.4)" stroke-width="2"></path>
        <path d="M82.49 -4.52 a10 10 0 1 0 20 0 a10 10 0 1 0 -20 0zM169.09 45.48 a10 10 0 1 0 20 0 a10 10 0 1 0 -20 0zM169.09 145.48 a10 10 0 1 0 20 0 a10 10 0 1 0 -20 0zM82.49 195.48 a10 10 0 1 0 20 0 a10 10 0 1 0 -20 0zM-4.12 145.48 a10 10 0 1 0 20 0 a10 10 0 1 0 -20 0zM-4.12 45.48 a10 10 0 1 0 20 0 a10 10 0 1 0 -20 0zM82.49 295.48 a10 10 0 1 0 20 0 a10 10 0 1 0 -20 0zM169.09 345.48 a10 10 0 1 0 20 0 a10 10 0 1 0 -20 0zM169.09 445.48 a10 10 0 1 0 20 0 a10 10 0 1 0 -20 0zM82.49 495.48 a10 10 0 1 0 20 0 a10 10 0 1 0 -20 0zM-4.12 445.48 a10 10 0 1 0 20 0 a10 10 0 1 0 -20 0zM-4.12 345.48 a10 10 0 1 0 20 0 a10 10 0 1 0 -20 0zM169.09 1045.48 a10 10 0 1 0 20 0 a10 10 0 1 0 -20 0zM255.7 1095.48 a10 10 0 1 0 20 0 a10 10 0 1 0 -20 0zM255.7 1195.48 a10 10 0 1 0 20 0 a10 10 0 1 0 -20 0zM169.09 1245.48 a10 10 0 1 0 20 0 a10 10 0 1 0 -20 0zM82.49 1195.48 a10 10 0 1 0 20 0 a10 10 0 1 0 -20 0zM82.49 1095.48 a10 10 0 1 0 20 0 a10 10 0 1 0 -20 0zM169.09 1345.48 a10 10 0 1 0 20 0 a10 10 0 1 0 -20 0zM255.7 1395.48 a10 10 0 1 0 20 0 a10 10 0 1 0 -20 0zM255.7 1495.48 a10 10 0 1 0 20 0 a10 10 0 1 0 -20 0zM169.09 1545.48 a10 10 0 1 0 20 0 a10 10 0 1 0 -20 0zM82.49 1495.48 a10 10 0 1 0 20 0 a10 10 0 1 0 -20 0zM82.49 1395.48 a10 10 0 1 0 20 0 a10 10 0 1 0 -20 0zM82.49 1795.48 a10 10 0 1 0 20 0 a10 10 0 1 0 -20 0zM169.09 1845.48 a10 10 0 1 0 20 0 a10 10 0 1 0 -20 0zM169.09 1945.48 a10 10 0 1 0 20 0 a10 10 0 1 0 -20 0zM82.49 1995.48 a10 10 0 1 0 20 0 a10 10 0 1 0 -20 0zM-4.12 1945.48 a10 10 0 1 0 20 0 a10 10 0 1 0 -20 0zM-4.12 1845.48 a10 10 0 1 0 20 0 a10 10 0 1 0 -20 0zM82.49 2095.48 a10 10 0 1 0 20 0 a10 10 0 1 0 -20 0zM169.09 2145.48 a10 10 0 1 0 20 0 a10 10 0 1 0 -20 0zM169.09 2245.48 a10 10 0 1 0 20 0 a10 10 0 1 0 -20 0zM82.49 2295.48 a10 10 0 1 0 20 0 a10 10 0 1 0 -20 0zM-4.12 2245.48 a10 10 0 1 0 20 0 a10 10 0 1 0 -20 0zM-4.12 2145.48 a10 10 0 1 0 20 0 a10 10 0 1 0 -20 0zM255.7 -4.52 a10 10 0 1 0 20 0 a10 10 0 1 0 -20 0zM342.31 45.48 a10 10 0 1 0 20 0 a10 10 0 1 0 -20 0zM342.31 145.48 a10 10 0 1 0 20 0 a10 10 0 1 0 -20 0zM255.7 195.48 a10 10 0 1 0 20 0 a10 10 0 1 0 -20 0zM342.31 445.48 a10 10 0 1 0 20 0 a10 10 0 1 0 -20 0zM428.91 495.48 a10 10 0 1 0 20 0 a10 10 0 1 0 -20 0zM428.91 595.48 a10 10 0 1 0 20 0 a10 10 0 1 0 -20 0zM342.31 645.48 a10 10 0 1 0 20 0 a10 10 0 1 0 -20 0zM255.7 595.48 a10 10 0 1 0 20 0 a10 10 0 1 0 -20 0zM255.7 495.48 a10 10 0 1 0 20 0 a10 10 0 1 0 -20 0zM342.31 745.48 a10 10 0 1 0 20 0 a10 10 0 1 0 -20 0zM428.91 795.48 a10 10 0 1 0 20 0 a10 10 0 1 0 -20 0zM428.91 895.48 a10 10 0 1 0 20 0 a10 10 0 1 0 -20 0zM342.31 945.48 a10 10 0 1 0 20 0 a10 10 0 1 0 -20 0zM255.7 895.48 a10 10 0 1 0 20 0 a10 10 0 1 0 -20 0zM255.7 795.48 a10 10 0 1 0 20 0 a10 10 0 1 0 -20 0zM342.31 1345.48 a10 10 0 1 0 20 0 a10 10 0 1 0 -20 0zM428.91 1395.48 a10 10 0 1 0 20 0 a10 10 0 1 0 -20 0zM428.91 1495.48 a10 10 0 1 0 20 0 a10 10 0 1 0 -20 0zM342.31 1545.48 a10 10 0 1 0 20 0 a10 10 0 1 0 -20 0zM342.31 1645.48 a10 10 0 1 0 20 0 a10 10 0 1 0 -20 0zM255.7 1695.48 a10 10 0 1 0 20 0 a10 10 0 1 0 -20 0zM169.09 1645.48 a10 10 0 1 0 20 0 a10 10 0 1 0 -20 0zM428.91 1695.48 a10 10 0 1 0 20 0 a10 10 0 1 0 -20 0zM428.91 1795.48 a10 10 0 1 0 20 0 a10 10 0 1 0 -20 0zM342.31 1845.48 a10 10 0 1 0 20 0 a10 10 0 1 0 -20 0zM255.7 1795.48 a10 10 0 1 0 20 0 a10 10 0 1 0 -20 0zM255.7 2095.48 a10 10 0 1 0 20 0 a10 10 0 1 0 -20 0zM342.31 2145.48 a10 10 0 1 0 20 0 a10 10 0 1 0 -20 0zM342.31 2245.48 a10 10 0 1 0 20 0 a10 10 0 1 0 -20 0zM255.7 2295.48 a10 10 0 1 0 20 0 a10 10 0 1 0 -20 0zM515.51 445.48 a10 10 0 1 0 20 0 a10 10 0 1 0 -20 0zM602.12 495.48 a10 10 0 1 0 20 0 a10 10 0 1 0 -20 0zM602.12 595.48 a10 10 0 1 0 20 0 a10 10 0 1 0 -20 0zM515.51 645.48 a10 10 0 1 0 20 0 a10 10 0 1 0 -20 0zM515.51 745.48 a10 10 0 1 0 20 0 a10 10 0 1 0 -20 0zM602.12 795.48 a10 10 0 1 0 20 0 a10 10 0 1 0 -20 0zM602.12 895.48 a10 10 0 1 0 20 0 a10 10 0 1 0 -20 0zM515.51 945.48 a10 10 0 1 0 20 0 a10 10 0 1 0 -20 0zM515.51 1045.48 a10 10 0 1 0 20 0 a10 10 0 1 0 -20 0zM602.12 1095.48 a10 10 0 1 0 20 0 a10 10 0 1 0 -20 0zM602.12 1195.48 a10 10 0 1 0 20 0 a10 10 0 1 0 -20 0zM515.51 1245.48 a10 10 0 1 0 20 0 a10 10 0 1 0 -20 0zM428.91 1195.48 a10 10 0 1 0 20 0 a10 10 0 1 0 -20 0zM428.91 1095.48 a10 10 0 1 0 20 0 a10 10 0 1 0 -20 0zM515.51 1345.48 a10 10 0 1 0 20 0 a10 10 0 1 0 -20 0zM602.12 1395.48 a10 10 0 1 0 20 0 a10 10 0 1 0 -20 0zM602.12 1495.48 a10 10 0 1 0 20 0 a10 10 0 1 0 -20 0zM515.51 1545.48 a10 10 0 1 0 20 0 a10 10 0 1 0 -20 0zM515.51 1645.48 a10 10 0 1 0 20 0 a10 10 0 1 0 -20 0zM602.12 1695.48 a10 10 0 1 0 20 0 a10 10 0 1 0 -20 0zM602.12 1795.48 a10 10 0 1 0 20 0 a10 10 0 1 0 -20 0zM515.51 1845.48 a10 10 0 1 0 20 0 a10 10 0 1 0 -20 0zM515.51 1945.48 a10 10 0 1 0 20 0 a10 10 0 1 0 -20 0zM428.91 1995.48 a10 10 0 1 0 20 0 a10 10 0 1 0 -20 0zM342.31 1945.48 a10 10 0 1 0 20 0 a10 10 0 1 0 -20 0zM602.12 -4.52 a10 10 0 1 0 20 0 a10 10 0 1 0 -20 0zM688.73 45.48 a10 10 0 1 0 20 0 a10 10 0 1 0 -20 0zM688.73 145.48 a10 10 0 1 0 20 0 a10 10 0 1 0 -20 0zM602.12 195.48 a10 10 0 1 0 20 0 a10 10 0 1 0 -20 0zM515.51 145.48 a10 10 0 1 0 20 0 a10 10 0 1 0 -20 0zM515.51 45.48 a10 10 0 1 0 20 0 a10 10 0 1 0 -20 0zM602.12 295.48 a10 10 0 1 0 20 0 a10 10 0 1 0 -20 0zM688.73 345.48 a10 10 0 1 0 20 0 a10 10 0 1 0 -20 0zM688.73 445.48 a10 10 0 1 0 20 0 a10 10 0 1 0 -20 0zM515.51 345.48 a10 10 0 1 0 20 0 a10 10 0 1 0 -20 0zM688.73 945.48 a10 10 0 1 0 20 0 a10 10 0 1 0 -20 0zM688.73 1045.48 a10 10 0 1 0 20 0 a10 10 0 1 0 -20 0zM775.33 1095.48 a10 10 0 1 0 20 0 a10 10 0 1 0 -20 0zM775.33 1195.48 a10 10 0 1 0 20 0 a10 10 0 1 0 -20 0zM688.73 1245.48 a10 10 0 1 0 20 0 a10 10 0 1 0 -20 0zM688.73 1345.48 a10 10 0 1 0 20 0 a10 10 0 1 0 -20 0zM775.33 1395.48 a10 10 0 1 0 20 0 a10 10 0 1 0 -20 0zM775.33 1495.48 a10 10 0 1 0 20 0 a10 10 0 1 0 -20 0zM688.73 1545.48 a10 10 0 1 0 20 0 a10 10 0 1 0 -20 0zM688.73 1645.48 a10 10 0 1 0 20 0 a10 10 0 1 0 -20 0zM775.33 1695.48 a10 10 0 1 0 20 0 a10 10 0 1 0 -20 0zM775.33 1795.48 a10 10 0 1 0 20 0 a10 10 0 1 0 -20 0zM688.73 1845.48 a10 10 0 1 0 20 0 a10 10 0 1 0 -20 0zM688.73 1945.48 a10 10 0 1 0 20 0 a10 10 0 1 0 -20 0zM602.12 1995.48 a10 10 0 1 0 20 0 a10 10 0 1 0 -20 0zM775.33 1995.48 a10 10 0 1 0 20 0 a10 10 0 1 0 -20 0zM775.33 2095.48 a10 10 0 1 0 20 0 a10 10 0 1 0 -20 0zM688.73 2145.48 a10 10 0 1 0 20 0 a10 10 0 1 0 -20 0zM602.12 2095.48 a10 10 0 1 0 20 0 a10 10 0 1 0 -20 0zM775.33 -4.52 a10 10 0 1 0 20 0 a10 10 0 1 0 -20 0zM861.94 45.48 a10 10 0 1 0 20 0 a10 10 0 1 0 -20 0zM861.94 145.48 a10 10 0 1 0 20 0 a10 10 0 1 0 -20 0zM775.33 195.48 a10 10 0 1 0 20 0 a10 10 0 1 0 -20 0zM948.54 195.48 a10 10 0 1 0 20 0 a10 10 0 1 0 -20 0zM948.54 295.48 a10 10 0 1 0 20 0 a10 10 0 1 0 -20 0zM861.94 345.48 a10 10 0 1 0 20 0 a10 10 0 1 0 -20 0zM775.33 295.48 a10 10 0 1 0 20 0 a10 10 0 1 0 -20 0zM861.94 445.48 a10 10 0 1 0 20 0 a10 10 0 1 0 -20 0zM948.54 495.48 a10 10 0 1 0 20 0 a10 10 0 1 0 -20 0zM948.54 595.48 a10 10 0 1 0 20 0 a10 10 0 1 0 -20 0zM861.94 645.48 a10 10 0 1 0 20 0 a10 10 0 1 0 -20 0zM775.33 595.48 a10 10 0 1 0 20 0 a10 10 0 1 0 -20 0zM775.33 495.48 a10 10 0 1 0 20 0 a10 10 0 1 0 -20 0zM861.94 745.48 a10 10 0 1 0 20 0 a10 10 0 1 0 -20 0zM775.33 795.48 a10 10 0 1 0 20 0 a10 10 0 1 0 -20 0zM688.73 745.48 a10 10 0 1 0 20 0 a10 10 0 1 0 -20 0zM688.73 645.48 a10 10 0 1 0 20 0 a10 10 0 1 0 -20 0zM861.94 1245.48 a10 10 0 1 0 20 0 a10 10 0 1 0 -20 0zM861.94 1345.48 a10 10 0 1 0 20 0 a10 10 0 1 0 -20 0zM948.54 1395.48 a10 10 0 1 0 20 0 a10 10 0 1 0 -20 0zM948.54 1495.48 a10 10 0 1 0 20 0 a10 10 0 1 0 -20 0zM861.94 1545.48 a10 10 0 1 0 20 0 a10 10 0 1 0 -20 0zM861.94 1645.48 a10 10 0 1 0 20 0 a10 10 0 1 0 -20 0zM948.54 1695.48 a10 10 0 1 0 20 0 a10 10 0 1 0 -20 0zM948.54 1795.48 a10 10 0 1 0 20 0 a10 10 0 1 0 -20 0zM861.94 1845.48 a10 10 0 1 0 20 0 a10 10 0 1 0 -20 0zM861.94 1945.48 a10 10 0 1 0 20 0 a10 10 0 1 0 -20 0zM948.54 -4.52 a10 10 0 1 0 20 0 a10 10 0 1 0 -20 0zM1035.14 45.48 a10 10 0 1 0 20 0 a10 10 0 1 0 -20 0zM1035.14 145.48 a10 10 0 1 0 20 0 a10 10 0 1 0 -20 0zM1035.14 345.48 a10 10 0 1 0 20 0 a10 10 0 1 0 -20 0zM1035.14 445.48 a10 10 0 1 0 20 0 a10 10 0 1 0 -20 0zM1035.14 745.48 a10 10 0 1 0 20 0 a10 10 0 1 0 -20 0zM1121.75 795.48 a10 10 0 1 0 20 0 a10 10 0 1 0 -20 0zM1121.75 895.48 a10 10 0 1 0 20 0 a10 10 0 1 0 -20 0zM1035.14 945.48 a10 10 0 1 0 20 0 a10 10 0 1 0 -20 0zM948.54 895.48 a10 10 0 1 0 20 0 a10 10 0 1 0 -20 0zM948.54 795.48 a10 10 0 1 0 20 0 a10 10 0 1 0 -20 0zM948.54 1195.48 a10 10 0 1 0 20 0 a10 10 0 1 0 -20 0zM1035.14 1245.48 a10 10 0 1 0 20 0 a10 10 0 1 0 -20 0zM1035.14 1345.48 a10 10 0 1 0 20 0 a10 10 0 1 0 -20 0zM1035.14 1545.48 a10 10 0 1 0 20 0 a10 10 0 1 0 -20 0zM1035.14 1645.48 a10 10 0 1 0 20 0 a10 10 0 1 0 -20 0zM1035.14 1945.48 a10 10 0 1 0 20 0 a10 10 0 1 0 -20 0zM1121.75 1995.48 a10 10 0 1 0 20 0 a10 10 0 1 0 -20 0zM1121.75 2095.48 a10 10 0 1 0 20 0 a10 10 0 1 0 -20 0zM1035.14 2145.48 a10 10 0 1 0 20 0 a10 10 0 1 0 -20 0zM948.54 2095.48 a10 10 0 1 0 20 0 a10 10 0 1 0 -20 0zM948.54 1995.48 a10 10 0 1 0 20 0 a10 10 0 1 0 -20 0zM1035.14 2245.48 a10 10 0 1 0 20 0 a10 10 0 1 0 -20 0zM948.54 2295.48 a10 10 0 1 0 20 0 a10 10 0 1 0 -20 0zM861.94 2245.48 a10 10 0 1 0 20 0 a10 10 0 1 0 -20 0zM861.94 2145.48 a10 10 0 1 0 20 0 a10 10 0 1 0 -20 0zM1121.75 -4.52 a10 10 0 1 0 20 0 a10 10 0 1 0 -20 0zM1208.36 45.48 a10 10 0 1 0 20 0 a10 10 0 1 0 -20 0zM1208.36 145.48 a10 10 0 1 0 20 0 a10 10 0 1 0 -20 0zM1121.75 195.48 a10 10 0 1 0 20 0 a10 10 0 1 0 -20 0zM1294.96 195.48 a10 10 0 1 0 20 0 a10 10 0 1 0 -20 0zM1294.96 295.48 a10 10 0 1 0 20 0 a10 10 0 1 0 -20 0zM1208.36 345.48 a10 10 0 1 0 20 0 a10 10 0 1 0 -20 0zM1121.75 295.48 a10 10 0 1 0 20 0 a10 10 0 1 0 -20 0zM1208.36 445.48 a10 10 0 1 0 20 0 a10 10 0 1 0 -20 0zM1294.96 495.48 a10 10 0 1 0 20 0 a10 10 0 1 0 -20 0zM1294.96 595.48 a10 10 0 1 0 20 0 a10 10 0 1 0 -20 0zM1208.36 645.48 a10 10 0 1 0 20 0 a10 10 0 1 0 -20 0zM1121.75 595.48 a10 10 0 1 0 20 0 a10 10 0 1 0 -20 0zM1121.75 495.48 a10 10 0 1 0 20 0 a10 10 0 1 0 -20 0zM1208.36 1345.48 a10 10 0 1 0 20 0 a10 10 0 1 0 -20 0zM1294.96 1395.48 a10 10 0 1 0 20 0 a10 10 0 1 0 -20 0zM1294.96 1495.48 a10 10 0 1 0 20 0 a10 10 0 1 0 -20 0zM1208.36 1545.48 a10 10 0 1 0 20 0 a10 10 0 1 0 -20 0zM1121.75 1495.48 a10 10 0 1 0 20 0 a10 10 0 1 0 -20 0zM1121.75 1395.48 a10 10 0 1 0 20 0 a10 10 0 1 0 -20 0zM1121.75 1795.48 a10 10 0 1 0 20 0 a10 10 0 1 0 -20 0zM1208.36 1845.48 a10 10 0 1 0 20 0 a10 10 0 1 0 -20 0zM1208.36 1945.48 a10 10 0 1 0 20 0 a10 10 0 1 0 -20 0zM1035.14 1845.48 a10 10 0 1 0 20 0 a10 10 0 1 0 -20 0zM1208.36 2145.48 a10 10 0 1 0 20 0 a10 10 0 1 0 -20 0zM1208.36 2245.48 a10 10 0 1 0 20 0 a10 10 0 1 0 -20 0zM1121.75 2295.48 a10 10 0 1 0 20 0 a10 10 0 1 0 -20 0zM1381.57 645.48 a10 10 0 1 0 20 0 a10 10 0 1 0 -20 0zM1381.57 745.48 a10 10 0 1 0 20 0 a10 10 0 1 0 -20 0zM1294.96 795.48 a10 10 0 1 0 20 0 a10 10 0 1 0 -20 0zM1208.36 745.48 a10 10 0 1 0 20 0 a10 10 0 1 0 -20 0zM1468.17 795.48 a10 10 0 1 0 20 0 a10 10 0 1 0 -20 0zM1468.17 895.48 a10 10 0 1 0 20 0 a10 10 0 1 0 -20 0zM1381.57 945.48 a10 10 0 1 0 20 0 a10 10 0 1 0 -20 0zM1294.96 895.48 a10 10 0 1 0 20 0 a10 10 0 1 0 -20 0zM1381.57 1045.48 a10 10 0 1 0 20 0 a10 10 0 1 0 -20 0zM1468.17 1095.48 a10 10 0 1 0 20 0 a10 10 0 1 0 -20 0zM1468.17 1195.48 a10 10 0 1 0 20 0 a10 10 0 1 0 -20 0zM1381.57 1245.48 a10 10 0 1 0 20 0 a10 10 0 1 0 -20 0zM1294.96 1195.48 a10 10 0 1 0 20 0 a10 10 0 1 0 -20 0zM1294.96 1095.48 a10 10 0 1 0 20 0 a10 10 0 1 0 -20 0zM1381.57 1345.48 a10 10 0 1 0 20 0 a10 10 0 1 0 -20 0zM1208.36 1245.48 a10 10 0 1 0 20 0 a10 10 0 1 0 -20 0zM1381.57 1645.48 a10 10 0 1 0 20 0 a10 10 0 1 0 -20 0zM1468.17 1695.48 a10 10 0 1 0 20 0 a10 10 0 1 0 -20 0zM1468.17 1795.48 a10 10 0 1 0 20 0 a10 10 0 1 0 -20 0zM1381.57 1845.48 a10 10 0 1 0 20 0 a10 10 0 1 0 -20 0zM1294.96 1795.48 a10 10 0 1 0 20 0 a10 10 0 1 0 -20 0zM1294.96 1695.48 a10 10 0 1 0 20 0 a10 10 0 1 0 -20 0zM1468.17 -4.52 a10 10 0 1 0 20 0 a10 10 0 1 0 -20 0zM1554.78 45.48 a10 10 0 1 0 20 0 a10 10 0 1 0 -20 0zM1554.78 145.48 a10 10 0 1 0 20 0 a10 10 0 1 0 -20 0zM1468.17 195.48 a10 10 0 1 0 20 0 a10 10 0 1 0 -20 0zM1381.57 145.48 a10 10 0 1 0 20 0 a10 10 0 1 0 -20 0zM1381.57 45.48 a10 10 0 1 0 20 0 a10 10 0 1 0 -20 0zM1468.17 295.48 a10 10 0 1 0 20 0 a10 10 0 1 0 -20 0zM1554.78 345.48 a10 10 0 1 0 20 0 a10 10 0 1 0 -20 0zM1554.78 445.48 a10 10 0 1 0 20 0 a10 10 0 1 0 -20 0zM1468.17 495.48 a10 10 0 1 0 20 0 a10 10 0 1 0 -20 0zM1381.57 445.48 a10 10 0 1 0 20 0 a10 10 0 1 0 -20 0zM1381.57 345.48 a10 10 0 1 0 20 0 a10 10 0 1 0 -20 0zM1641.38 495.48 a10 10 0 1 0 20 0 a10 10 0 1 0 -20 0zM1641.38 595.48 a10 10 0 1 0 20 0 a10 10 0 1 0 -20 0zM1554.78 645.48 a10 10 0 1 0 20 0 a10 10 0 1 0 -20 0zM1468.17 595.48 a10 10 0 1 0 20 0 a10 10 0 1 0 -20 0zM1554.78 745.48 a10 10 0 1 0 20 0 a10 10 0 1 0 -20 0zM1554.78 1045.48 a10 10 0 1 0 20 0 a10 10 0 1 0 -20 0zM1641.38 1095.48 a10 10 0 1 0 20 0 a10 10 0 1 0 -20 0zM1641.38 1195.48 a10 10 0 1 0 20 0 a10 10 0 1 0 -20 0zM1554.78 1245.48 a10 10 0 1 0 20 0 a10 10 0 1 0 -20 0zM1554.78 1345.48 a10 10 0 1 0 20 0 a10 10 0 1 0 -20 0zM1468.17 1395.48 a10 10 0 1 0 20 0 a10 10 0 1 0 -20 0zM1468.17 1495.48 a10 10 0 1 0 20 0 a10 10 0 1 0 -20 0zM1554.78 1545.48 a10 10 0 1 0 20 0 a10 10 0 1 0 -20 0zM1554.78 1645.48 a10 10 0 1 0 20 0 a10 10 0 1 0 -20 0zM1381.57 1545.48 a10 10 0 1 0 20 0 a10 10 0 1 0 -20 0zM1554.78 1845.48 a10 10 0 1 0 20 0 a10 10 0 1 0 -20 0zM1554.78 1945.48 a10 10 0 1 0 20 0 a10 10 0 1 0 -20 0zM1468.17 1995.48 a10 10 0 1 0 20 0 a10 10 0 1 0 -20 0zM1381.57 1945.48 a10 10 0 1 0 20 0 a10 10 0 1 0 -20 0zM1641.38 1995.48 a10 10 0 1 0 20 0 a10 10 0 1 0 -20 0zM1641.38 2095.48 a10 10 0 1 0 20 0 a10 10 0 1 0 -20 0zM1554.78 2145.48 a10 10 0 1 0 20 0 a10 10 0 1 0 -20 0zM1468.17 2095.48 a10 10 0 1 0 20 0 a10 10 0 1 0 -20 0zM1641.38 -4.52 a10 10 0 1 0 20 0 a10 10 0 1 0 -20 0zM1727.99 45.48 a10 10 0 1 0 20 0 a10 10 0 1 0 -20 0zM1727.99 145.48 a10 10 0 1 0 20 0 a10 10 0 1 0 -20 0zM1641.38 195.48 a10 10 0 1 0 20 0 a10 10 0 1 0 -20 0zM1727.99 645.48 a10 10 0 1 0 20 0 a10 10 0 1 0 -20 0zM1727.99 745.48 a10 10 0 1 0 20 0 a10 10 0 1 0 -20 0zM1641.38 795.48 a10 10 0 1 0 20 0 a10 10 0 1 0 -20 0zM1641.38 895.48 a10 10 0 1 0 20 0 a10 10 0 1 0 -20 0zM1727.99 945.48 a10 10 0 1 0 20 0 a10 10 0 1 0 -20 0zM1727.99 1045.48 a10 10 0 1 0 20 0 a10 10 0 1 0 -20 0zM1554.78 945.48 a10 10 0 1 0 20 0 a10 10 0 1 0 -20 0zM1814.59 1095.48 a10 10 0 1 0 20 0 a10 10 0 1 0 -20 0zM1814.59 1195.48 a10 10 0 1 0 20 0 a10 10 0 1 0 -20 0zM1727.99 1245.48 a10 10 0 1 0 20 0 a10 10 0 1 0 -20 0zM1727.99 1345.48 a10 10 0 1 0 20 0 a10 10 0 1 0 -20 0zM1641.38 1395.48 a10 10 0 1 0 20 0 a10 10 0 1 0 -20 0zM1814.59 1395.48 a10 10 0 1 0 20 0 a10 10 0 1 0 -20 0zM1814.59 1495.48 a10 10 0 1 0 20 0 a10 10 0 1 0 -20 0zM1727.99 1545.48 a10 10 0 1 0 20 0 a10 10 0 1 0 -20 0zM1641.38 1495.48 a10 10 0 1 0 20 0 a10 10 0 1 0 -20 0zM1727.99 1645.48 a10 10 0 1 0 20 0 a10 10 0 1 0 -20 0zM1641.38 1695.48 a10 10 0 1 0 20 0 a10 10 0 1 0 -20 0zM1814.59 1695.48 a10 10 0 1 0 20 0 a10 10 0 1 0 -20 0zM1814.59 1795.48 a10 10 0 1 0 20 0 a10 10 0 1 0 -20 0zM1727.99 1845.48 a10 10 0 1 0 20 0 a10 10 0 1 0 -20 0zM1641.38 1795.48 a10 10 0 1 0 20 0 a10 10 0 1 0 -20 0zM1727.99 2145.48 a10 10 0 1 0 20 0 a10 10 0 1 0 -20 0zM1727.99 2245.48 a10 10 0 1 0 20 0 a10 10 0 1 0 -20 0zM1641.38 2295.48 a10 10 0 1 0 20 0 a10 10 0 1 0 -20 0zM1554.78 2245.48 a10 10 0 1 0 20 0 a10 10 0 1 0 -20 0zM1814.59 -4.52 a10 10 0 1 0 20 0 a10 10 0 1 0 -20 0zM1901.2 45.48 a10 10 0 1 0 20 0 a10 10 0 1 0 -20 0zM1901.2 145.48 a10 10 0 1 0 20 0 a10 10 0 1 0 -20 0zM1814.59 195.48 a10 10 0 1 0 20 0 a10 10 0 1 0 -20 0zM1987.8 195.48 a10 10 0 1 0 20 0 a10 10 0 1 0 -20 0zM1987.8 295.48 a10 10 0 1 0 20 0 a10 10 0 1 0 -20 0zM1901.2 345.48 a10 10 0 1 0 20 0 a10 10 0 1 0 -20 0zM1814.59 295.48 a10 10 0 1 0 20 0 a10 10 0 1 0 -20 0zM1814.59 595.48 a10 10 0 1 0 20 0 a10 10 0 1 0 -20 0zM1901.2 645.48 a10 10 0 1 0 20 0 a10 10 0 1 0 -20 0zM1901.2 745.48 a10 10 0 1 0 20 0 a10 10 0 1 0 -20 0zM1814.59 795.48 a10 10 0 1 0 20 0 a10 10 0 1 0 -20 0zM1987.8 795.48 a10 10 0 1 0 20 0 a10 10 0 1 0 -20 0zM1987.8 895.48 a10 10 0 1 0 20 0 a10 10 0 1 0 -20 0zM1901.2 945.48 a10 10 0 1 0 20 0 a10 10 0 1 0 -20 0zM1814.59 895.48 a10 10 0 1 0 20 0 a10 10 0 1 0 -20 0zM1901.2 1045.48 a10 10 0 1 0 20 0 a10 10 0 1 0 -20 0zM1901.2 1345.48 a10 10 0 1 0 20 0 a10 10 0 1 0 -20 0zM1987.8 1395.48 a10 10 0 1 0 20 0 a10 10 0 1 0 -20 0zM1987.8 1495.48 a10 10 0 1 0 20 0 a10 10 0 1 0 -20 0zM1901.2 1545.48 a10 10 0 1 0 20 0 a10 10 0 1 0 -20 0zM1901.2 1645.48 a10 10 0 1 0 20 0 a10 10 0 1 0 -20 0zM1987.8 1695.48 a10 10 0 1 0 20 0 a10 10 0 1 0 -20 0zM1987.8 1795.48 a10 10 0 1 0 20 0 a10 10 0 1 0 -20 0zM1901.2 1845.48 a10 10 0 1 0 20 0 a10 10 0 1 0 -20 0zM1901.2 1945.48 a10 10 0 1 0 20 0 a10 10 0 1 0 -20 0zM1814.59 1995.48 a10 10 0 1 0 20 0 a10 10 0 1 0 -20 0zM1727.99 1945.48 a10 10 0 1 0 20 0 a10 10 0 1 0 -20 0zM1814.59 2095.48 a10 10 0 1 0 20 0 a10 10 0 1 0 -20 0zM1901.2 2145.48 a10 10 0 1 0 20 0 a10 10 0 1 0 -20 0zM1901.2 2245.48 a10 10 0 1 0 20 0 a10 10 0 1 0 -20 0zM1814.59 2295.48 a10 10 0 1 0 20 0 a10 10 0 1 0 -20 0zM1987.8 -4.52 a10 10 0 1 0 20 0 a10 10 0 1 0 -20 0zM2074.41 45.48 a10 10 0 1 0 20 0 a10 10 0 1 0 -20 0zM2074.41 145.48 a10 10 0 1 0 20 0 a10 10 0 1 0 -20 0zM2161.01 195.48 a10 10 0 1 0 20 0 a10 10 0 1 0 -20 0zM2161.01 295.48 a10 10 0 1 0 20 0 a10 10 0 1 0 -20 0zM2074.41 345.48 a10 10 0 1 0 20 0 a10 10 0 1 0 -20 0zM2074.41 445.48 a10 10 0 1 0 20 0 a10 10 0 1 0 -20 0zM1987.8 495.48 a10 10 0 1 0 20 0 a10 10 0 1 0 -20 0zM1901.2 445.48 a10 10 0 1 0 20 0 a10 10 0 1 0 -20 0zM2074.41 745.48 a10 10 0 1 0 20 0 a10 10 0 1 0 -20 0zM2161.01 795.48 a10 10 0 1 0 20 0 a10 10 0 1 0 -20 0zM2161.01 895.48 a10 10 0 1 0 20 0 a10 10 0 1 0 -20 0zM2074.41 945.48 a10 10 0 1 0 20 0 a10 10 0 1 0 -20 0zM2074.41 1045.48 a10 10 0 1 0 20 0 a10 10 0 1 0 -20 0zM1987.8 1095.48 a10 10 0 1 0 20 0 a10 10 0 1 0 -20 0zM2161.01 1095.48 a10 10 0 1 0 20 0 a10 10 0 1 0 -20 0zM2161.01 1195.48 a10 10 0 1 0 20 0 a10 10 0 1 0 -20 0zM2074.41 1245.48 a10 10 0 1 0 20 0 a10 10 0 1 0 -20 0zM1987.8 1195.48 a10 10 0 1 0 20 0 a10 10 0 1 0 -20 0zM1987.8 2095.48 a10 10 0 1 0 20 0 a10 10 0 1 0 -20 0zM2074.41 2145.48 a10 10 0 1 0 20 0 a10 10 0 1 0 -20 0zM2074.41 2245.48 a10 10 0 1 0 20 0 a10 10 0 1 0 -20 0zM1987.8 2295.48 a10 10 0 1 0 20 0 a10 10 0 1 0 -20 0zM2161.01 -4.52 a10 10 0 1 0 20 0 a10 10 0 1 0 -20 0zM2247.61 45.48 a10 10 0 1 0 20 0 a10 10 0 1 0 -20 0zM2247.61 145.48 a10 10 0 1 0 20 0 a10 10 0 1 0 -20 0zM2074.4 145.48 a10 10 0 1 0 20 0 a10 10 0 1 0 -20 0zM2074.4 45.48 a10 10 0 1 0 20 0 a10 10 0 1 0 -20 0zM2161.01 595.48 a10 10 0 1 0 20 0 a10 10 0 1 0 -20 0zM2247.61 645.48 a10 10 0 1 0 20 0 a10 10 0 1 0 -20 0zM2247.61 745.48 a10 10 0 1 0 20 0 a10 10 0 1 0 -20 0zM2074.4 745.48 a10 10 0 1 0 20 0 a10 10 0 1 0 -20 0zM2074.4 645.48 a10 10 0 1 0 20 0 a10 10 0 1 0 -20 0zM2334.22 795.48 a10 10 0 1 0 20 0 a10 10 0 1 0 -20 0zM2334.22 895.48 a10 10 0 1 0 20 0 a10 10 0 1 0 -20 0zM2247.61 945.48 a10 10 0 1 0 20 0 a10 10 0 1 0 -20 0zM2247.61 1045.48 a10 10 0 1 0 20 0 a10 10 0 1 0 -20 0zM2334.22 1095.48 a10 10 0 1 0 20 0 a10 10 0 1 0 -20 0zM2334.22 1195.48 a10 10 0 1 0 20 0 a10 10 0 1 0 -20 0zM2247.61 1245.48 a10 10 0 1 0 20 0 a10 10 0 1 0 -20 0zM2247.61 1345.48 a10 10 0 1 0 20 0 a10 10 0 1 0 -20 0zM2161.01 1395.48 a10 10 0 1 0 20 0 a10 10 0 1 0 -20 0zM2074.4 1345.48 a10 10 0 1 0 20 0 a10 10 0 1 0 -20 0zM2074.4 1245.48 a10 10 0 1 0 20 0 a10 10 0 1 0 -20 0zM2334.22 1395.48 a10 10 0 1 0 20 0 a10 10 0 1 0 -20 0zM2334.22 1495.48 a10 10 0 1 0 20 0 a10 10 0 1 0 -20 0zM2247.61 1545.48 a10 10 0 1 0 20 0 a10 10 0 1 0 -20 0zM2161.01 1495.48 a10 10 0 1 0 20 0 a10 10 0 1 0 -20 0zM2247.61 1645.48 a10 10 0 1 0 20 0 a10 10 0 1 0 -20 0zM2161.01 1695.48 a10 10 0 1 0 20 0 a10 10 0 1 0 -20 0zM2074.4 1645.48 a10 10 0 1 0 20 0 a10 10 0 1 0 -20 0zM2074.4 1545.48 a10 10 0 1 0 20 0 a10 10 0 1 0 -20 0zM2334.22 1695.48 a10 10 0 1 0 20 0 a10 10 0 1 0 -20 0zM2334.22 1795.48 a10 10 0 1 0 20 0 a10 10 0 1 0 -20 0zM2247.61 1845.48 a10 10 0 1 0 20 0 a10 10 0 1 0 -20 0zM2161.01 1795.48 a10 10 0 1 0 20 0 a10 10 0 1 0 -20 0zM2334.22 -4.52 a10 10 0 1 0 20 0 a10 10 0 1 0 -20 0zM2420.82 45.48 a10 10 0 1 0 20 0 a10 10 0 1 0 -20 0zM2420.82 145.48 a10 10 0 1 0 20 0 a10 10 0 1 0 -20 0zM2334.22 195.48 a10 10 0 1 0 20 0 a10 10 0 1 0 -20 0zM2334.22 295.48 a10 10 0 1 0 20 0 a10 10 0 1 0 -20 0zM2420.82 345.48 a10 10 0 1 0 20 0 a10 10 0 1 0 -20 0zM2420.82 445.48 a10 10 0 1 0 20 0 a10 10 0 1 0 -20 0zM2334.22 495.48 a10 10 0 1 0 20 0 a10 10 0 1 0 -20 0zM2247.61 445.48 a10 10 0 1 0 20 0 a10 10 0 1 0 -20 0zM2247.61 345.48 a10 10 0 1 0 20 0 a10 10 0 1 0 -20 0zM2334.22 595.48 a10 10 0 1 0 20 0 a10 10 0 1 0 -20 0zM2420.82 645.48 a10 10 0 1 0 20 0 a10 10 0 1 0 -20 0zM2420.82 745.48 a10 10 0 1 0 20 0 a10 10 0 1 0 -20 0zM2420.82 1045.48 a10 10 0 1 0 20 0 a10 10 0 1 0 -20 0zM2507.43 1095.48 a10 10 0 1 0 20 0 a10 10 0 1 0 -20 0zM2507.43 1195.48 a10 10 0 1 0 20 0 a10 10 0 1 0 -20 0zM2420.82 1245.48 a10 10 0 1 0 20 0 a10 10 0 1 0 -20 0zM2420.82 1545.48 a10 10 0 1 0 20 0 a10 10 0 1 0 -20 0zM2420.82 1645.48 a10 10 0 1 0 20 0 a10 10 0 1 0 -20 0zM2507.43 1695.48 a10 10 0 1 0 20 0 a10 10 0 1 0 -20 0zM2507.43 1795.48 a10 10 0 1 0 20 0 a10 10 0 1 0 -20 0zM2420.82 1845.48 a10 10 0 1 0 20 0 a10 10 0 1 0 -20 0zM2420.82 1945.48 a10 10 0 1 0 20 0 a10 10 0 1 0 -20 0zM2507.43 1995.48 a10 10 0 1 0 20 0 a10 10 0 1 0 -20 0zM2507.43 2095.48 a10 10 0 1 0 20 0 a10 10 0 1 0 -20 0zM2420.82 2145.48 a10 10 0 1 0 20 0 a10 10 0 1 0 -20 0zM2334.22 2095.48 a10 10 0 1 0 20 0 a10 10 0 1 0 -20 0zM2334.22 1995.48 a10 10 0 1 0 20 0 a10 10 0 1 0 -20 0zM2507.43 295.48 a10 10 0 1 0 20 0 a10 10 0 1 0 -20 0zM2594.03 345.48 a10 10 0 1 0 20 0 a10 10 0 1 0 -20 0zM2594.03 445.48 a10 10 0 1 0 20 0 a10 10 0 1 0 -20 0zM2507.43 495.48 a10 10 0 1 0 20 0 a10 10 0 1 0 -20 0zM2594.03 745.48 a10 10 0 1 0 20 0 a10 10 0 1 0 -20 0zM2680.64 795.48 a10 10 0 1 0 20 0 a10 10 0 1 0 -20 0zM2680.64 895.48 a10 10 0 1 0 20 0 a10 10 0 1 0 -20 0zM2594.03 945.48 a10 10 0 1 0 20 0 a10 10 0 1 0 -20 0zM2507.43 895.48 a10 10 0 1 0 20 0 a10 10 0 1 0 -20 0zM2507.43 795.48 a10 10 0 1 0 20 0 a10 10 0 1 0 -20 0zM2594.03 1245.48 a10 10 0 1 0 20 0 a10 10 0 1 0 -20 0zM2594.03 1345.48 a10 10 0 1 0 20 0 a10 10 0 1 0 -20 0zM2507.43 1395.48 a10 10 0 1 0 20 0 a10 10 0 1 0 -20 0zM2420.82 1345.48 a10 10 0 1 0 20 0 a10 10 0 1 0 -20 0zM2507.43 1495.48 a10 10 0 1 0 20 0 a10 10 0 1 0 -20 0zM2594.03 1545.48 a10 10 0 1 0 20 0 a10 10 0 1 0 -20 0zM2594.03 1645.48 a10 10 0 1 0 20 0 a10 10 0 1 0 -20 0zM2680.64 1695.48 a10 10 0 1 0 20 0 a10 10 0 1 0 -20 0zM2680.64 1795.48 a10 10 0 1 0 20 0 a10 10 0 1 0 -20 0zM2594.03 1845.48 a10 10 0 1 0 20 0 a10 10 0 1 0 -20 0zM2594.03 1945.48 a10 10 0 1 0 20 0 a10 10 0 1 0 -20 0zM2680.64 295.48 a10 10 0 1 0 20 0 a10 10 0 1 0 -20 0zM2767.24 345.48 a10 10 0 1 0 20 0 a10 10 0 1 0 -20 0zM2767.24 445.48 a10 10 0 1 0 20 0 a10 10 0 1 0 -20 0zM2680.64 495.48 a10 10 0 1 0 20 0 a10 10 0 1 0 -20 0zM2853.85 495.48 a10 10 0 1 0 20 0 a10 10 0 1 0 -20 0zM2853.85 595.48 a10 10 0 1 0 20 0 a10 10 0 1 0 -20 0zM2767.24 645.48 a10 10 0 1 0 20 0 a10 10 0 1 0 -20 0zM2680.64 595.48 a10 10 0 1 0 20 0 a10 10 0 1 0 -20 0zM2767.24 745.48 a10 10 0 1 0 20 0 a10 10 0 1 0 -20 0zM2853.85 795.48 a10 10 0 1 0 20 0 a10 10 0 1 0 -20 0zM2853.85 895.48 a10 10 0 1 0 20 0 a10 10 0 1 0 -20 0zM2767.24 945.48 a10 10 0 1 0 20 0 a10 10 0 1 0 -20 0zM2767.24 1045.48 a10 10 0 1 0 20 0 a10 10 0 1 0 -20 0zM2680.64 1095.48 a10 10 0 1 0 20 0 a10 10 0 1 0 -20 0zM2594.03 1045.48 a10 10 0 1 0 20 0 a10 10 0 1 0 -20 0zM2853.85 1095.48 a10 10 0 1 0 20 0 a10 10 0 1 0 -20 0zM2853.85 1195.48 a10 10 0 1 0 20 0 a10 10 0 1 0 -20 0zM2767.24 1245.48 a10 10 0 1 0 20 0 a10 10 0 1 0 -20 0zM2680.64 1195.48 a10 10 0 1 0 20 0 a10 10 0 1 0 -20 0zM2767.24 1345.48 a10 10 0 1 0 20 0 a10 10 0 1 0 -20 0zM2853.85 1395.48 a10 10 0 1 0 20 0 a10 10 0 1 0 -20 0zM2853.85 1495.48 a10 10 0 1 0 20 0 a10 10 0 1 0 -20 0zM2767.24 1545.48 a10 10 0 1 0 20 0 a10 10 0 1 0 -20 0zM2680.64 1495.48 a10 10 0 1 0 20 0 a10 10 0 1 0 -20 0zM2680.64 1395.48 a10 10 0 1 0 20 0 a10 10 0 1 0 -20 0zM2767.24 1645.48 a10 10 0 1 0 20 0 a10 10 0 1 0 -20 0zM2853.85 1695.48 a10 10 0 1 0 20 0 a10 10 0 1 0 -20 0zM2853.85 1795.48 a10 10 0 1 0 20 0 a10 10 0 1 0 -20 0zM2767.24 1845.48 a10 10 0 1 0 20 0 a10 10 0 1 0 -20 0zM2767.24 1945.48 a10 10 0 1 0 20 0 a10 10 0 1 0 -20 0zM2853.85 1995.48 a10 10 0 1 0 20 0 a10 10 0 1 0 -20 0zM2853.85 2095.48 a10 10 0 1 0 20 0 a10 10 0 1 0 -20 0zM2767.24 2145.48 a10 10 0 1 0 20 0 a10 10 0 1 0 -20 0zM2680.64 2095.48 a10 10 0 1 0 20 0 a10 10 0 1 0 -20 0zM2680.64 1995.48 a10 10 0 1 0 20 0 a10 10 0 1 0 -20 0zM2853.85 -4.52 a10 10 0 1 0 20 0 a10 10 0 1 0 -20 0zM2940.45 45.48 a10 10 0 1 0 20 0 a10 10 0 1 0 -20 0zM2940.45 145.48 a10 10 0 1 0 20 0 a10 10 0 1 0 -20 0zM2853.85 195.48 a10 10 0 1 0 20 0 a10 10 0 1 0 -20 0zM2767.24 145.48 a10 10 0 1 0 20 0 a10 10 0 1 0 -20 0zM2767.24 45.48 a10 10 0 1 0 20 0 a10 10 0 1 0 -20 0zM2853.85 295.48 a10 10 0 1 0 20 0 a10 10 0 1 0 -20 0zM2940.45 345.48 a10 10 0 1 0 20 0 a10 10 0 1 0 -20 0zM2940.45 445.48 a10 10 0 1 0 20 0 a10 10 0 1 0 -20 0zM3027.06 495.48 a10 10 0 1 0 20 0 a10 10 0 1 0 -20 0zM3027.06 595.48 a10 10 0 1 0 20 0 a10 10 0 1 0 -20 0zM2940.45 645.48 a10 10 0 1 0 20 0 a10 10 0 1 0 -20 0zM2940.45 745.48 a10 10 0 1 0 20 0 a10 10 0 1 0 -20 0zM2940.45 945.48 a10 10 0 1 0 20 0 a10 10 0 1 0 -20 0zM2940.45 1045.48 a10 10 0 1 0 20 0 a10 10 0 1 0 -20 0zM3027.06 1095.48 a10 10 0 1 0 20 0 a10 10 0 1 0 -20 0zM3027.06 1195.48 a10 10 0 1 0 20 0 a10 10 0 1 0 -20 0zM2940.45 1245.48 a10 10 0 1 0 20 0 a10 10 0 1 0 -20 0zM2940.45 1345.48 a10 10 0 1 0 20 0 a10 10 0 1 0 -20 0zM3027.06 1395.48 a10 10 0 1 0 20 0 a10 10 0 1 0 -20 0zM3027.06 1495.48 a10 10 0 1 0 20 0 a10 10 0 1 0 -20 0zM2940.45 1545.48 a10 10 0 1 0 20 0 a10 10 0 1 0 -20 0zM2940.45 1645.48 a10 10 0 1 0 20 0 a10 10 0 1 0 -20 0zM3027.06 1695.48 a10 10 0 1 0 20 0 a10 10 0 1 0 -20 0zM3027.06 1795.48 a10 10 0 1 0 20 0 a10 10 0 1 0 -20 0zM2940.45 1845.48 a10 10 0 1 0 20 0 a10 10 0 1 0 -20 0zM2940.45 1945.48 a10 10 0 1 0 20 0 a10 10 0 1 0 -20 0zM3027.06 1995.48 a10 10 0 1 0 20 0 a10 10 0 1 0 -20 0zM3027.06 2095.48 a10 10 0 1 0 20 0 a10 10 0 1 0 -20 0zM2940.45 2145.48 a10 10 0 1 0 20 0 a10 10 0 1 0 -20 0zM3027.06 -4.52 a10 10 0 1 0 20 0 a10 10 0 1 0 -20 0zM3113.66 45.48 a10 10 0 1 0 20 0 a10 10 0 1 0 -20 0zM3113.66 145.48 a10 10 0 1 0 20 0 a10 10 0 1 0 -20 0zM3027.06 195.48 a10 10 0 1 0 20 0 a10 10 0 1 0 -20 0zM3027.06 295.48 a10 10 0 1 0 20 0 a10 10 0 1 0 -20 0zM3113.66 345.48 a10 10 0 1 0 20 0 a10 10 0 1 0 -20 0zM3113.66 445.48 a10 10 0 1 0 20 0 a10 10 0 1 0 -20 0zM3113.66 745.48 a10 10 0 1 0 20 0 a10 10 0 1 0 -20 0zM3200.27 795.48 a10 10 0 1 0 20 0 a10 10 0 1 0 -20 0zM3200.27 895.48 a10 10 0 1 0 20 0 a10 10 0 1 0 -20 0zM3113.66 945.48 a10 10 0 1 0 20 0 a10 10 0 1 0 -20 0zM3027.06 895.48 a10 10 0 1 0 20 0 a10 10 0 1 0 -20 0zM3027.06 795.48 a10 10 0 1 0 20 0 a10 10 0 1 0 -20 0zM3113.66 1045.48 a10 10 0 1 0 20 0 a10 10 0 1 0 -20 0zM3200.27 1095.48 a10 10 0 1 0 20 0 a10 10 0 1 0 -20 0zM3200.27 1195.48 a10 10 0 1 0 20 0 a10 10 0 1 0 -20 0zM3113.66 1245.48 a10 10 0 1 0 20 0 a10 10 0 1 0 -20 0zM3113.66 1345.48 a10 10 0 1 0 20 0 a10 10 0 1 0 -20 0zM3113.66 1645.48 a10 10 0 1 0 20 0 a10 10 0 1 0 -20 0zM3200.27 1695.48 a10 10 0 1 0 20 0 a10 10 0 1 0 -20 0zM3200.27 1795.48 a10 10 0 1 0 20 0 a10 10 0 1 0 -20 0zM3113.66 1845.48 a10 10 0 1 0 20 0 a10 10 0 1 0 -20 0zM3113.66 1945.48 a10 10 0 1 0 20 0 a10 10 0 1 0 -20 0zM3200.27 1995.48 a10 10 0 1 0 20 0 a10 10 0 1 0 -20 0zM3200.27 2095.48 a10 10 0 1 0 20 0 a10 10 0 1 0 -20 0zM3113.66 2145.48 a10 10 0 1 0 20 0 a10 10 0 1 0 -20 0zM3286.88 145.48 a10 10 0 1 0 20 0 a10 10 0 1 0 -20 0zM3373.48 195.48 a10 10 0 1 0 20 0 a10 10 0 1 0 -20 0zM3373.48 295.48 a10 10 0 1 0 20 0 a10 10 0 1 0 -20 0zM3286.88 345.48 a10 10 0 1 0 20 0 a10 10 0 1 0 -20 0zM3200.27 295.48 a10 10 0 1 0 20 0 a10 10 0 1 0 -20 0zM3200.27 195.48 a10 10 0 1 0 20 0 a10 10 0 1 0 -20 0zM3200.27 595.48 a10 10 0 1 0 20 0 a10 10 0 1 0 -20 0zM3286.88 645.48 a10 10 0 1 0 20 0 a10 10 0 1 0 -20 0zM3286.88 745.48 a10 10 0 1 0 20 0 a10 10 0 1 0 -20 0zM3113.66 645.48 a10 10 0 1 0 20 0 a10 10 0 1 0 -20 0zM3286.88 945.48 a10 10 0 1 0 20 0 a10 10 0 1 0 -20 0zM3286.88 1045.48 a10 10 0 1 0 20 0 a10 10 0 1 0 -20 0zM3373.48 1095.48 a10 10 0 1 0 20 0 a10 10 0 1 0 -20 0zM3373.48 1195.48 a10 10 0 1 0 20 0 a10 10 0 1 0 -20 0zM3286.88 1245.48 a10 10 0 1 0 20 0 a10 10 0 1 0 -20 0zM3286.88 1345.48 a10 10 0 1 0 20 0 a10 10 0 1 0 -20 0zM3200.27 1395.48 a10 10 0 1 0 20 0 a10 10 0 1 0 -20 0zM3200.27 1495.48 a10 10 0 1 0 20 0 a10 10 0 1 0 -20 0zM3286.88 1545.48 a10 10 0 1 0 20 0 a10 10 0 1 0 -20 0zM3286.88 1645.48 a10 10 0 1 0 20 0 a10 10 0 1 0 -20 0zM3113.66 1545.48 a10 10 0 1 0 20 0 a10 10 0 1 0 -20 0zM3373.48 1695.48 a10 10 0 1 0 20 0 a10 10 0 1 0 -20 0zM3373.48 1795.48 a10 10 0 1 0 20 0 a10 10 0 1 0 -20 0zM3286.88 1845.48 a10 10 0 1 0 20 0 a10 10 0 1 0 -20 0zM3286.88 1945.48 a10 10 0 1 0 20 0 a10 10 0 1 0 -20 0zM3373.48 1995.48 a10 10 0 1 0 20 0 a10 10 0 1 0 -20 0zM3373.48 2095.48 a10 10 0 1 0 20 0 a10 10 0 1 0 -20 0zM3286.88 2145.48 a10 10 0 1 0 20 0 a10 10 0 1 0 -20 0zM3373.48 895.48 a10 10 0 1 0 20 0 a10 10 0 1 0 -20 0zM3460.09 945.48 a10 10 0 1 0 20 0 a10 10 0 1 0 -20 0zM3460.09 1045.48 a10 10 0 1 0 20 0 a10 10 0 1 0 -20 0zM3460.09 1945.48 a10 10 0 1 0 20 0 a10 10 0 1 0 -20 0zM3546.69 1995.48 a10 10 0 1 0 20 0 a10 10 0 1 0 -20 0zM3546.69 2095.48 a10 10 0 1 0 20 0 a10 10 0 1 0 -20 0zM3460.09 2145.48 a10 10 0 1 0 20 0 a10 10 0 1 0 -20 0zM3460.09 2245.48 a10 10 0 1 0 20 0 a10 10 0 1 0 -20 0zM3373.48 2295.48 a10 10 0 1 0 20 0 a10 10 0 1 0 -20 0zM3286.88 2245.48 a10 10 0 1 0 20 0 a10 10 0 1 0 -20 0zM3633.3 145.48 a10 10 0 1 0 20 0 a10 10 0 1 0 -20 0zM3719.9 195.48 a10 10 0 1 0 20 0 a10 10 0 1 0 -20 0zM3719.9 295.48 a10 10 0 1 0 20 0 a10 10 0 1 0 -20 0zM3633.3 345.48 a10 10 0 1 0 20 0 a10 10 0 1 0 -20 0zM3546.69 295.48 a10 10 0 1 0 20 0 a10 10 0 1 0 -20 0zM3546.69 195.48 a10 10 0 1 0 20 0 a10 10 0 1 0 -20 0zM3633.3 445.48 a10 10 0 1 0 20 0 a10 10 0 1 0 -20 0zM3546.69 495.48 a10 10 0 1 0 20 0 a10 10 0 1 0 -20 0zM3460.09 445.48 a10 10 0 1 0 20 0 a10 10 0 1 0 -20 0zM3460.09 345.48 a10 10 0 1 0 20 0 a10 10 0 1 0 -20 0zM3546.69 595.48 a10 10 0 1 0 20 0 a10 10 0 1 0 -20 0zM3633.3 645.48 a10 10 0 1 0 20 0 a10 10 0 1 0 -20 0zM3633.3 745.48 a10 10 0 1 0 20 0 a10 10 0 1 0 -20 0zM3546.69 795.48 a10 10 0 1 0 20 0 a10 10 0 1 0 -20 0zM3460.09 745.48 a10 10 0 1 0 20 0 a10 10 0 1 0 -20 0zM3460.09 645.48 a10 10 0 1 0 20 0 a10 10 0 1 0 -20 0zM3719.9 795.48 a10 10 0 1 0 20 0 a10 10 0 1 0 -20 0zM3719.9 895.48 a10 10 0 1 0 20 0 a10 10 0 1 0 -20 0zM3633.3 945.48 a10 10 0 1 0 20 0 a10 10 0 1 0 -20 0zM3546.69 895.48 a10 10 0 1 0 20 0 a10 10 0 1 0 -20 0zM3546.69 1495.48 a10 10 0 1 0 20 0 a10 10 0 1 0 -20 0zM3633.3 1545.48 a10 10 0 1 0 20 0 a10 10 0 1 0 -20 0zM3633.3 1645.48 a10 10 0 1 0 20 0 a10 10 0 1 0 -20 0zM3546.69 1695.48 a10 10 0 1 0 20 0 a10 10 0 1 0 -20 0zM3460.09 1645.48 a10 10 0 1 0 20 0 a10 10 0 1 0 -20 0zM3460.09 1545.48 a10 10 0 1 0 20 0 a10 10 0 1 0 -20 0zM3719.9 1695.48 a10 10 0 1 0 20 0 a10 10 0 1 0 -20 0zM3719.9 1795.48 a10 10 0 1 0 20 0 a10 10 0 1 0 -20 0zM3633.3 1845.48 a10 10 0 1 0 20 0 a10 10 0 1 0 -20 0zM3546.69 1795.48 a10 10 0 1 0 20 0 a10 10 0 1 0 -20 0zM3633.3 1945.48 a10 10 0 1 0 20 0 a10 10 0 1 0 -20 0zM3460.09 1845.48 a10 10 0 1 0 20 0 a10 10 0 1 0 -20 0zM3719.9 1995.48 a10 10 0 1 0 20 0 a10 10 0 1 0 -20 0zM3719.9 2095.48 a10 10 0 1 0 20 0 a10 10 0 1 0 -20 0zM3633.3 2145.48 a10 10 0 1 0 20 0 a10 10 0 1 0 -20 0zM3633.3 2245.48 a10 10 0 1 0 20 0 a10 10 0 1 0 -20 0zM3546.69 2295.48 a10 10 0 1 0 20 0 a10 10 0 1 0 -20 0zM3719.9 -4.52 a10 10 0 1 0 20 0 a10 10 0 1 0 -20 0zM3806.51 45.48 a10 10 0 1 0 20 0 a10 10 0 1 0 -20 0zM3806.51 145.48 a10 10 0 1 0 20 0 a10 10 0 1 0 -20 0zM3633.3 45.48 a10 10 0 1 0 20 0 a10 10 0 1 0 -20 0zM3893.11 195.48 a10 10 0 1 0 20 0 a10 10 0 1 0 -20 0zM3893.11 295.48 a10 10 0 1 0 20 0 a10 10 0 1 0 -20 0zM3806.51 345.48 a10 10 0 1 0 20 0 a10 10 0 1 0 -20 0zM3806.51 1345.48 a10 10 0 1 0 20 0 a10 10 0 1 0 -20 0zM3893.11 1395.48 a10 10 0 1 0 20 0 a10 10 0 1 0 -20 0zM3893.11 1495.48 a10 10 0 1 0 20 0 a10 10 0 1 0 -20 0zM3806.51 1545.48 a10 10 0 1 0 20 0 a10 10 0 1 0 -20 0zM3719.9 1495.48 a10 10 0 1 0 20 0 a10 10 0 1 0 -20 0zM3719.9 1395.48 a10 10 0 1 0 20 0 a10 10 0 1 0 -20 0zM3806.51 1645.48 a10 10 0 1 0 20 0 a10 10 0 1 0 -20 0zM3893.11 1695.48 a10 10 0 1 0 20 0 a10 10 0 1 0 -20 0zM3893.11 1795.48 a10 10 0 1 0 20 0 a10 10 0 1 0 -20 0zM3806.51 1845.48 a10 10 0 1 0 20 0 a10 10 0 1 0 -20 0zM3806.51 1945.48 a10 10 0 1 0 20 0 a10 10 0 1 0 -20 0zM3893.11 1995.48 a10 10 0 1 0 20 0 a10 10 0 1 0 -20 0zM3893.11 2095.48 a10 10 0 1 0 20 0 a10 10 0 1 0 -20 0zM3806.51 2145.48 a10 10 0 1 0 20 0 a10 10 0 1 0 -20 0zM3979.72 145.48 a10 10 0 1 0 20 0 a10 10 0 1 0 -20 0zM4066.32 195.48 a10 10 0 1 0 20 0 a10 10 0 1 0 -20 0zM4066.32 295.48 a10 10 0 1 0 20 0 a10 10 0 1 0 -20 0zM3979.72 345.48 a10 10 0 1 0 20 0 a10 10 0 1 0 -20 0zM3893.11 595.48 a10 10 0 1 0 20 0 a10 10 0 1 0 -20 0zM3979.72 645.48 a10 10 0 1 0 20 0 a10 10 0 1 0 -20 0zM3979.72 745.48 a10 10 0 1 0 20 0 a10 10 0 1 0 -20 0zM3893.11 795.48 a10 10 0 1 0 20 0 a10 10 0 1 0 -20 0zM3806.51 745.48 a10 10 0 1 0 20 0 a10 10 0 1 0 -20 0zM3806.51 645.48 a10 10 0 1 0 20 0 a10 10 0 1 0 -20 0zM3893.11 895.48 a10 10 0 1 0 20 0 a10 10 0 1 0 -20 0zM3979.72 945.48 a10 10 0 1 0 20 0 a10 10 0 1 0 -20 0zM3979.72 1045.48 a10 10 0 1 0 20 0 a10 10 0 1 0 -20 0zM3893.11 1095.48 a10 10 0 1 0 20 0 a10 10 0 1 0 -20 0zM3806.51 1045.48 a10 10 0 1 0 20 0 a10 10 0 1 0 -20 0zM3806.51 945.48 a10 10 0 1 0 20 0 a10 10 0 1 0 -20 0zM4066.32 1095.48 a10 10 0 1 0 20 0 a10 10 0 1 0 -20 0zM4066.32 1195.48 a10 10 0 1 0 20 0 a10 10 0 1 0 -20 0zM3979.72 1245.48 a10 10 0 1 0 20 0 a10 10 0 1 0 -20 0zM3893.11 1195.48 a10 10 0 1 0 20 0 a10 10 0 1 0 -20 0zM3979.72 1545.48 a10 10 0 1 0 20 0 a10 10 0 1 0 -20 0zM3979.72 1645.48 a10 10 0 1 0 20 0 a10 10 0 1 0 -20 0z" fill="rgba(170, 34, 60, 0.4)"></path>
        <path d="M53.74 -55.38L118.69 -17.88L118.69 57.12L53.74 94.62L-11.21 57.12L-11.21 -17.88zM53.74 169.62L118.69 207.12L118.69 282.12L53.74 319.62L-11.21 282.12L-11.21 207.12zM118.69 507.12L183.65 544.62L183.65 619.62L118.69 657.12L53.74 619.62L53.74 544.62zM183.65 -55.38L248.6 -17.88L248.6 57.12L183.65 94.62L118.69 57.12L118.69 -17.88zM248.6 57.12L313.56 94.62L313.56 169.62L248.6 207.12L183.65 169.62L183.65 94.62zM248.6 957.12L313.56 994.62L313.56 1069.62L248.6 1107.12L183.65 1069.62L183.65 994.62zM248.6 1632.12L313.56 1669.62L313.56 1744.62L248.6 1782.12L183.65 1744.62L183.65 1669.62zM508.42 57.12L573.37 94.62L573.37 169.62L508.42 207.12L443.46 169.62L443.46 94.62zM443.46 394.62L508.42 432.12L508.42 507.12L443.46 544.62L378.51 507.12L378.51 432.12zM443.46 1294.62L508.42 1332.12L508.42 1407.12L443.46 1444.62L378.51 1407.12L378.51 1332.12zM508.42 1407.12L573.37 1444.62L573.37 1519.62L508.42 1557.12L443.46 1519.62L443.46 1444.62zM638.32 57.12L703.28 94.62L703.28 169.62L638.32 207.12L573.37 169.62L573.37 94.62zM573.37 844.62L638.32 882.12L638.32 957.12L573.37 994.62L508.42 957.12L508.42 882.12zM573.37 1744.62L638.32 1782.12L638.32 1857.12L573.37 1894.62L508.42 1857.12L508.42 1782.12zM703.28 169.62L768.23 207.12L768.23 282.12L703.28 319.62L638.32 282.12L638.32 207.12zM703.28 394.62L768.23 432.12L768.23 507.12L703.28 544.62L638.32 507.12L638.32 432.12zM768.23 1632.12L833.19 1669.62L833.19 1744.62L768.23 1782.12L703.28 1744.62L703.28 1669.62zM833.18 -55.38L898.14 -17.88L898.14 57.12L833.18 94.62L768.23 57.12L768.23 -17.88zM833.18 1294.62L898.14 1332.12L898.14 1407.12L833.18 1444.62L768.23 1407.12L768.23 1332.12zM833.18 1744.62L898.14 1782.12L898.14 1857.12L833.18 1894.62L768.23 1857.12L768.23 1782.12zM833.18 1969.62L898.14 2007.12L898.14 2082.12L833.18 2119.62L768.23 2082.12L768.23 2007.12zM963.09 1069.62L1028.05 1107.12L1028.05 1182.12L963.09 1219.62L898.14 1182.12L898.14 1107.12zM1028.05 1407.12L1093 1444.62L1093 1519.62L1028.05 1557.12L963.09 1519.62L963.09 1444.62zM1157.95 732.12L1222.91 769.62L1222.91 844.62L1157.95 882.12L1093 844.62L1093 769.62zM1093 1969.62L1157.95 2007.12L1157.95 2082.12L1093 2119.62L1028.05 2082.12L1028.05 2007.12zM1222.91 -55.38L1287.86 -17.88L1287.86 57.12L1222.91 94.62L1157.95 57.12L1157.95 -17.88zM1287.86 2082.12L1352.81 2119.62L1352.81 2194.62L1287.86 2232.12L1222.91 2194.62L1222.91 2119.62zM1417.77 282.12L1482.72 319.62L1482.72 394.62L1417.77 432.12L1352.82 394.62L1352.82 319.62zM1352.82 1294.62L1417.77 1332.12L1417.77 1407.12L1352.82 1444.62L1287.86 1407.12L1287.86 1332.12zM1417.77 1632.12L1482.72 1669.62L1482.72 1744.62L1417.77 1782.12L1352.82 1744.62L1352.82 1669.62zM1547.68 1182.12L1612.63 1219.62L1612.63 1294.62L1547.68 1332.12L1482.72 1294.62L1482.72 1219.62zM1677.58 1857.12L1742.54 1894.62L1742.54 1969.62L1677.58 2007.12L1612.63 1969.62L1612.63 1894.62zM1677.58 2082.12L1742.54 2119.62L1742.54 2194.62L1677.58 2232.12L1612.63 2194.62L1612.63 2119.62zM1742.54 394.62L1807.49 432.12L1807.49 507.12L1742.54 544.62L1677.58 507.12L1677.58 432.12zM1872.44 1069.62L1937.4 1107.12L1937.4 1182.12L1872.44 1219.62L1807.49 1182.12L1807.49 1107.12zM1937.4 1407.12L2002.35 1444.62L2002.35 1519.62L1937.4 1557.12L1872.44 1519.62L1872.44 1444.62zM1937.4 1857.12L2002.35 1894.62L2002.35 1969.62L1937.4 2007.12L1872.44 1969.62L1872.44 1894.62zM2002.35 1744.62L2067.31 1782.12L2067.31 1857.12L2002.35 1894.62L1937.4 1857.12L1937.4 1782.12zM2132.26 394.62L2197.21 432.12L2197.21 507.12L2132.26 544.62L2067.31 507.12L2067.31 432.12zM2197.21 1182.12L2262.17 1219.62L2262.17 1294.62L2197.21 1332.12L2132.26 1294.62L2132.26 1219.62zM2132.26 1519.62L2197.21 1557.12L2197.21 1632.12L2132.26 1669.62L2067.31 1632.12L2067.31 1557.12zM2262.17 1519.62L2327.12 1557.12L2327.12 1632.12L2262.17 1669.62L2197.21 1632.12L2197.21 1557.12zM2457.03 282.12L2521.98 319.62L2521.98 394.62L2457.03 432.12L2392.07 394.62L2392.07 319.62zM2392.07 1519.62L2457.03 1557.12L2457.03 1632.12L2392.07 1669.62L2327.12 1632.12L2327.12 1557.12zM2586.94 2082.12L2651.89 2119.62L2651.89 2194.62L2586.94 2232.12L2521.98 2194.62L2521.98 2119.62zM2846.75 2082.12L2911.7 2119.62L2911.7 2194.62L2846.75 2232.12L2781.8 2194.62L2781.8 2119.62zM2976.66 57.12L3041.61 94.62L3041.61 169.62L2976.66 207.12L2911.7 169.62L2911.7 94.62zM2976.66 1407.12L3041.61 1444.62L3041.61 1519.62L2976.66 1557.12L2911.7 1519.62L2911.7 1444.62zM3171.52 -55.38L3236.47 -17.88L3236.47 57.12L3171.52 94.62L3106.57 57.12L3106.57 -17.88zM3236.47 282.12L3301.43 319.62L3301.43 394.62L3236.47 432.12L3171.52 394.62L3171.52 319.62zM3171.52 394.62L3236.47 432.12L3236.47 507.12L3171.52 544.62L3106.57 507.12L3106.57 432.12zM3301.43 1969.62L3366.38 2007.12L3366.38 2082.12L3301.43 2119.62L3236.47 2082.12L3236.47 2007.12zM3431.33 844.62L3496.29 882.12L3496.29 957.12L3431.33 994.62L3366.38 957.12L3366.38 882.12zM3431.33 1069.62L3496.29 1107.12L3496.29 1182.12L3431.33 1219.62L3366.38 1182.12L3366.38 1107.12zM3561.24 394.62L3626.2 432.12L3626.2 507.12L3561.24 544.62L3496.29 507.12L3496.29 432.12zM3561.24 1519.62L3626.2 1557.12L3626.2 1632.12L3561.24 1669.62L3496.29 1632.12L3496.29 1557.12zM3691.15 844.62L3756.1 882.12L3756.1 957.12L3691.15 994.62L3626.2 957.12L3626.2 882.12zM3886.01 507.12L3950.97 544.62L3950.97 619.62L3886.01 657.12L3821.06 619.62L3821.06 544.62zM3821.06 844.62L3886.01 882.12L3886.01 957.12L3821.06 994.62L3756.1 957.12L3756.1 882.12zM3821.06 1069.62L3886.01 1107.12L3886.01 1182.12L3821.06 1219.62L3756.1 1182.12L3756.1 1107.12zM3886.01 1632.12L3950.97 1669.62L3950.97 1744.62L3886.01 1782.12L3821.06 1744.62L3821.06 1669.62z" stroke="rgba(170, 34, 60, 0.3)" stroke-width="2"></path>
    </g>
    <defs>
        <mask id="SvgjsMask1335">
            <rect width="3840" height="2160" fill="#ffffff"></rect>
        </mask>
    </defs>
</svg>